<svg xmlns="http://www.w3.org/2000/svg" version="1.1" xmlns:xlink="http://www.w3.org/1999/xlink" xmlns:svgjs="http://svgjs.dev/svgjs" width="1179" height="2556" preserveAspectRatio="none" viewBox="0 0 1179 2556"><g mask="url(&quot;#SvgjsMask1033&quot;)" fill="none"><rect width="1179" height="2556" x="0" y="0" fill="rgba(122, 0, 25, 1)"></rect><path d="M0,957.459C177.687,941.636,332.912,847.886,480.603,747.834C625.187,649.887,748.842,531.831,844.229,385.546C952.737,219.139,1063.081,44.975,1068.404,-153.613C1074.19,-369.475,998.916,-581.325,874.881,-758.089C742.607,-946.594,575.725,-1155.104,346.984,-1181.718C119.009,-1208.243,-58.662,-997.849,-261.415,-890.297C-420.078,-806.133,-589.668,-748.281,-714.161,-618.824C-843.286,-484.551,-932.62,-320.836,-981.821,-141.165C-1036.009,56.717,-1094.423,274.258,-1009.918,461.214C-925.344,648.323,-723.24,748.07,-538.951,838.624C-370.429,921.431,-187.028,974.114,0,957.459" fill="#620014"></path><path d="M1179 3213.975C1300.102 3214.6440000000002 1373.881 3082.788 1471.392 3010.971 1561.574 2944.552 1660.62 2895.408 1730.444 2807.8360000000002 1816.308 2700.148 1912.807 2587.195 1918.99 2449.605 1925.5529999999999 2303.556 1869.508 2150.389 1764.5610000000001 2048.608 1662.174 1949.309 1509.7269999999999 1922.818 1367.335 1914.589 1244.517 1907.491 1136.579 1975.164 1017.336 2005.424 892.219 2037.174 741.512 2006.712 649.112 2096.849 556.012 2187.669 573.984 2337.958 546.205 2465.018 515.958 2603.364 403.244 2755.999 478.81600000000003 2875.763 556.994 2999.656 756.762 2944.034 888.6759999999999 3007.753 997.773 3060.451 1057.844 3213.306 1179 3213.975" fill="#92001e"></path></g><defs><mask id="SvgjsMask1033"><rect width="1179" height="2556" fill="#ffffff"></rect></mask></defs></svg>